<?xml version="1.0" encoding="iso-8859-1"?>
<!-- Generator: Adobe Illustrator 19.0.0, SVG Export Plug-In . SVG Version: 6.00 Build 0)  -->
<svg version="1.1" id="Layer_1" xmlns="http://www.w3.org/2000/svg" xmlns:xlink="http://www.w3.org/1999/xlink" x="0px" y="0px"
	 viewBox="0 0 512.003 512.003" style="enable-background:new 0 0 512.003 512.003;" xml:space="preserve">
<g>
	<g>
		<g>
			<path d="M508.774,271.442l-17.519-13.935c5.751-5.001,11.418-10.146,16.887-15.607c3.337-3.336,3.337-8.738,0-12.066
				c-3.337-3.337-8.738-3.337-12.066,0c-120.055,120.047-316.151,120.815-437.094,1.732c-2.577-2.543-5.982-4.079-9.583-4.326
				c-9.728-0.674-32.333-4.548-32.333-25.916c0-4.719-3.814-8.533-8.533-8.533S0,196.605,0,201.324
				c0,28.894,24.397,41.071,47.505,42.889c3.089,3.029,6.263,5.914,9.438,8.798l-29.474,36.847
				c-2.944,3.678-2.347,9.045,1.331,11.998c1.579,1.263,3.456,1.869,5.325,1.869c2.509,0,4.983-1.101,6.673-3.2l29.099-36.369
				c6.844,5.581,13.884,10.812,21.06,15.753l-29.79,44.681c-2.62,3.925-1.562,9.216,2.364,11.836
				c1.459,0.964,3.106,1.434,4.727,1.434c2.756,0,5.47-1.331,7.108-3.806l29.901-44.843c6.511,4.002,13.107,7.817,19.831,11.315
				l-30.293,59.042c-2.15,4.19-0.495,9.327,3.703,11.477c1.246,0.648,2.577,0.947,3.883,0.947c3.098,0,6.093-1.69,7.603-4.642
				l30.438-59.332c6.468,2.944,13.039,5.581,19.652,8.081l-23.125,70.289c-1.468,4.48,0.964,9.301,5.444,10.778
				c0.879,0.29,1.783,0.427,2.662,0.427c3.584,0,6.929-2.278,8.107-5.871l23.031-69.999c6.135,1.954,12.314,3.746,18.534,5.333
				l-15.334,68.676c-1.033,4.599,1.869,9.156,6.468,10.18c0.631,0.145,1.254,0.213,1.869,0.213c3.908,0,7.433-2.705,8.32-6.673
				l15.309-68.582c6.084,1.229,12.177,2.33,18.313,3.208l-7.774,79.753c-0.461,4.693,2.978,8.858,7.663,9.318
				c0.282,0.026,0.563,0.043,0.836,0.043c4.343,0,8.055-3.302,8.482-7.714l7.74-79.437c5.956,0.546,11.93,0.879,17.903,1.101v86.05
				c0,4.719,3.814,8.533,8.533,8.533c4.719,0,8.533-3.814,8.533-8.533v-85.888c6.255-0.094,12.51-0.375,18.748-0.828l15.59,71.467
				c0.862,3.985,4.395,6.716,8.32,6.716c0.597,0,1.22-0.06,1.826-0.205c4.608-0.998,7.526-5.547,6.519-10.146l-15.155-69.495
				c6.042-0.751,12.066-1.647,18.065-2.739l23.347,68.275c1.212,3.55,4.523,5.777,8.073,5.777c0.913,0,1.852-0.154,2.756-0.461
				c4.463-1.527,6.844-6.374,5.316-10.829l-22.647-66.244c6.246-1.468,12.459-3.098,18.62-4.932l31.019,60.749
				c1.51,2.953,4.506,4.651,7.612,4.651c1.297,0,2.637-0.299,3.874-0.939c4.19-2.142,5.862-7.279,3.721-11.477l-29.807-58.385
				c6.528-2.33,12.979-4.915,19.379-7.671l38.767,49.596c1.681,2.15,4.19,3.277,6.733,3.277c1.835,0,3.686-0.597,5.248-1.809
				c3.712-2.91,4.369-8.269,1.468-11.981L422.69,303.22c6.707-3.328,13.355-6.818,19.866-10.633l46.583,42.999
				c1.647,1.519,3.721,2.27,5.794,2.27c2.304,0,4.591-0.93,6.263-2.739c3.2-3.473,2.987-8.875-0.469-12.066l-43.162-39.834
				c6.895-4.557,13.602-9.481,20.207-14.618l20.386,16.205c1.57,1.246,3.439,1.852,5.299,1.852c2.517,0,5-1.101,6.69-3.226
				C513.084,279.736,512.469,274.369,508.774,271.442z"/>
			<path d="M126.801,237.63c-3.738-2.884-9.088-2.167-11.964,1.57c-2.876,3.729-2.167,9.088,1.562,11.964
				c35.456,27.256,77.679,43.11,125.508,47.113c0.256,0.026,0.486,0.034,0.725,0.034c4.395,0,8.124-3.362,8.491-7.817
				c0.401-4.693-3.089-8.823-7.782-9.216C198.822,277.549,159.62,262.864,126.801,237.63z"/>
			<path d="M94.901,139.922c1.818,0,3.652-0.58,5.205-1.775c46.515-35.891,135.91-55.373,194.884-27.221
				c4.241,2.022,9.335,0.23,11.375-4.028c2.039-4.25,0.239-9.344-4.019-11.375C235.633,63.651,140,85.821,89.679,124.63
				c-3.729,2.884-4.42,8.243-1.545,11.972C89.815,138.779,92.341,139.922,94.901,139.922z"/>
		</g>
	</g>
</g>
<g>
</g>
<g>
</g>
<g>
</g>
<g>
</g>
<g>
</g>
<g>
</g>
<g>
</g>
<g>
</g>
<g>
</g>
<g>
</g>
<g>
</g>
<g>
</g>
<g>
</g>
<g>
</g>
<g>
</g>
</svg>
